<svg xmlns="http://www.w3.org/2000/svg" width="256" height="256" viewBox="0 0 100 100"><path fill="#14bdfd" d="M70.83 17.57L62.52 17.57L62.52 62.08Q62.44 64.81 61.58 67.25Q60.72 69.69 59.14 71.53L59.14 71.53Q57.51 73.38 55.23 74.46Q52.94 75.53 50.04 75.53L50.04 75.53Q47.23 75.53 44.97 74.61Q42.71 73.69 41.08 71.97L41.08 71.97Q39.45 70.30 38.51 68.02Q37.56 65.73 37.43 63.05L37.43 63.05L29.17 63.05Q29.57 67.49 31.19 71.07Q32.82 74.65 35.54 77.16L35.54 77.16Q38.22 79.71 41.89 81.07Q45.56 82.43 50.04 82.43L50.04 82.43Q54.48 82.43 58.24 80.92Q62.00 79.40 64.77 76.67L64.77 76.67Q67.53 73.99 69.14 70.26Q70.74 66.52 70.83 62.08L70.83 62.08L70.83 17.57Z"></path></svg>